<?xml version="1.0" encoding="UTF-8" standalone="no"?>
<svg
   xmlns:dc="http://purl.org/dc/elements/1.1/"
   xmlns:cc="http://creativecommons.org/ns#"
   xmlns:rdf="http://www.w3.org/1999/02/22-rdf-syntax-ns#"
   xmlns:svg="http://www.w3.org/2000/svg"
   xmlns="http://www.w3.org/2000/svg"
   id="svg19322"
   xml:space="preserve"
   width="512px"
   viewBox="0 0 512 512"
   version="1.1"
   style="enable-background:new 0 0 512 512;"
   height="512px"><metadata
     id="metadata19388"><rdf:RDF><cc:Work
         rdf:about=""><dc:format>image/svg+xml</dc:format><dc:type
           rdf:resource="http://purl.org/dc/dcmitype/StillImage" /><dc:title></dc:title></cc:Work></rdf:RDF></metadata><defs
     id="defs19386" /><g
     id="g9772"><g
       id="形状_1_19_"
       style="enable-background:new"
       transform="translate(0,-77.07)"><g
         id="形状_1"><g
           id="g19326"><polygon
             points="91.809,117.07 122.593,450.579 255.999,486.501 389.402,450.579 420.191,117.07 "
             style="clip-rule:evenodd;fill:#1758a7;fill-rule:evenodd"
             id="polygon19328" /></g></g></g><g
       id="形状_1_18_"
       style="enable-background:new"
       transform="translate(0,-77.07)"><g
         id="形状_1_1_"><g
           id="g19332"><polygon
             points="255.997,144.084 255.997,457.852 256.298,457.933 364.257,428.863 389.175,144.084 "
             style="clip-rule:evenodd;fill:#379ad6;fill-rule:evenodd"
             id="polygon19334" /></g></g></g><g
       id="形状_1_17_"
       style="enable-background:new"
       transform="translate(0,-77.07)"><g
         id="形状_1_2_"><g
           id="g19338"><polygon
             points="172.263,391.644 256.001,416.637 256.001,372.43 255.623,372.537 255.551,372.558 210.981,361.197 208.28,328.479 166.861,328.479 "
             style="clip-rule:evenodd;fill:#e8e8e7;fill-rule:evenodd"
             id="polygon19340" /></g></g></g><g
       id="形状_1_16_"
       style="enable-background:new"
       transform="translate(0,-77.07)"><g
         id="形状_1_3_"><g
           id="g19344"><polygon
             points="256.12,372.47 256.001,372.504 256.001,416.591 256.12,416.627 256.153,416.637 340.114,392.114 351.007,266.782 256.001,266.782 256.001,306.911 256.12,306.911 305.622,306.965 302.445,359.419 "
             style="clip-rule:evenodd;fill:#fbfbfa;fill-rule:evenodd"
             id="polygon19346" /></g></g></g><g
       id="形状_1_15_"
       style="enable-background:new"
       transform="translate(0,-77.07)"><g
         id="形状_1_4_"><g
           id="g19350"><polygon
             points="161.002,266.782 164.154,306.869 164.159,306.931 256.001,306.937 256.001,266.782 "
             style="clip-rule:evenodd;fill:#e5e4e2;fill-rule:evenodd"
             id="polygon19352" /></g></g></g><g
       id="形状_1_14_"
       style="enable-background:new"
       transform="translate(0,-77.07)"><g
         id="形状_1_5_"><g
           id="g19356"><polygon
             points="255.768,266.782 256.001,266.681 256.001,226.617 161.008,266.782 "
             style="clip-rule:evenodd;fill:#eeeeee;fill-rule:evenodd"
             id="polygon19358" /></g></g></g><g
       id="形状_1_13_"
       style="enable-background:new"
       transform="translate(0,-77.07)"><g
         id="形状_1_6_"><g
           id="g19362"><polygon
             points="256.001,226.992 256.001,266.773 353.955,224.667 261.553,224.667 "
             style="clip-rule:evenodd;fill:#ffffff;fill-rule:evenodd"
             id="polygon19364" /></g></g></g><g
       id="形状_1_12_"
       style="enable-background:new"
       transform="translate(0,-77.07)"><g
         id="形状_1_7_"><g
           id="g19368"><polygon
             points="157.16,224.667 256.001,224.667 256.001,184.515 152.196,184.515 "
             style="clip-rule:evenodd;fill:#e7e7e6;fill-rule:evenodd"
             id="polygon19370" /></g></g></g><g
       id="形状_1_11_"
       style="enable-background:new"
       transform="translate(0,-77.07)"><g
         id="形状_1_8_"><g
           id="g19374"><path
             d="m 256.001,224.667 101.842,-40.152 -101.842,0 0,40.152 z m 0.027,0 97.76,0 4.056,-40.152 -101.816,40.152 z"
             style="clip-rule:evenodd;fill:#f8f8f7;fill-rule:evenodd"
             id="path19376" /></g></g></g><g
       style="font-style:normal;font-weight:normal;font-size:180px;line-height:125%;font-family:sans-serif;letter-spacing:-10px;word-spacing:0px;fill:#000000;fill-opacity:1;stroke:none;stroke-width:1px;stroke-linecap:butt;stroke-linejoin:miter;stroke-opacity:1"
       id="text19968"><path
         d="m 211.70312,455.39505 q -3.10546,1.61133 -6.4746,2.43164 -3.36915,0.82031 -7.03125,0.82031 -10.92774,0 -17.31446,-6.09375 -6.38672,-6.12304 -6.38672,-16.58203 0,-10.48828 6.38672,-16.58203 6.38672,-6.12305 17.31446,-6.12305 3.6621,0 7.03125,0.82032 3.36914,0.82031 6.4746,2.43164 l 0,9.05273 q -3.13476,-2.13867 -6.18164,-3.13476 -3.04687,-0.9961 -6.41601,-0.9961 -6.03516,0 -9.49219,3.86719 -3.45703,3.86719 -3.45703,10.66406 0,6.76758 3.45703,10.63477 3.45703,3.86719 9.49219,3.86719 3.36914,0 6.41601,-0.9961 3.04688,-0.99609 6.18164,-3.13476 l 0,9.05273 z"
         style="font-style:normal;font-variant:normal;font-weight:bold;font-stretch:normal;font-size:60px;font-family:sans-serif;-inkscape-font-specification:'sans-serif Bold';letter-spacing:0px"
         id="path9764" /><path
         d="m 252.68945,415.43411 0,9.25782 q -3.60351,-1.61133 -7.03125,-2.43165 -3.42773,-0.82031 -6.47461,-0.82031 -4.04297,0 -5.97656,1.11328 -1.93359,1.11328 -1.93359,3.45703 0,1.75782 1.28906,2.75391 1.31836,0.9668 4.74609,1.66992 l 4.80469,0.9668 q 7.29492,1.46484 10.37109,4.45312 3.07618,2.98829 3.07618,8.4961 0,7.23633 -4.30664,10.78125 -4.27735,3.51562 -13.09571,3.51562 -4.16015,0 -8.34961,-0.79101 -4.18945,-0.79102 -8.3789,-2.34375 l 0,-9.52149 q 4.18945,2.22657 8.08593,3.36914 3.92579,1.11329 7.5586,1.11329 3.6914,0 5.6543,-1.23047 1.96289,-1.23047 1.96289,-3.51563 0,-2.05078 -1.34766,-3.16406 -1.31836,-1.11328 -5.30273,-1.99219 l -4.36524,-0.9668 q -6.5625,-1.40625 -9.60937,-4.48242 -3.01758,-3.07617 -3.01758,-8.29101 0,-6.53321 4.21875,-10.04883 4.21875,-3.51563 12.1289,-3.51563 3.60352,0 7.41211,0.55664 3.8086,0.52735 7.88086,1.61133 z"
         style="font-style:normal;font-variant:normal;font-weight:bold;font-stretch:normal;font-size:60px;font-family:sans-serif;-inkscape-font-specification:'sans-serif Bold';letter-spacing:0px"
         id="path9766" /><path
         d="m 293.23633,415.43411 0,9.25782 q -3.60352,-1.61133 -7.03125,-2.43165 -3.42774,-0.82031 -6.47461,-0.82031 -4.04297,0 -5.97656,1.11328 -1.9336,1.11328 -1.9336,3.45703 0,1.75782 1.28906,2.75391 1.31836,0.9668 4.7461,1.66992 l 4.80469,0.9668 q 7.29492,1.46484 10.37109,4.45312 3.07617,2.98829 3.07617,8.4961 0,7.23633 -4.30664,10.78125 -4.27734,3.51562 -13.0957,3.51562 -4.16016,0 -8.34961,-0.79101 -4.18945,-0.79102 -8.37891,-2.34375 l 0,-9.52149 q 4.18946,2.22657 8.08594,3.36914 3.92578,1.11329 7.55859,1.11329 3.69141,0 5.6543,-1.23047 1.96289,-1.23047 1.96289,-3.51563 0,-2.05078 -1.34766,-3.16406 -1.31835,-1.11328 -5.30273,-1.99219 l -4.36523,-0.9668 q -6.5625,-1.40625 -9.60938,-4.48242 -3.01758,-3.07617 -3.01758,-8.29101 0,-6.53321 4.21875,-10.04883 4.21875,-3.51563 12.12891,-3.51563 3.60351,0 7.41211,0.55664 3.80859,0.52735 7.88086,1.61133 z"
         style="font-style:normal;font-variant:normal;font-weight:bold;font-stretch:normal;font-size:60px;font-family:sans-serif;-inkscape-font-specification:'sans-serif Bold';letter-spacing:0px"
         id="path9768" /><path
         d="m 328.48047,434.21341 q 4.42383,1.14258 6.70898,3.98437 2.31446,2.8125 2.31446,7.17774 0,6.50391 -4.98047,9.90234 -4.98047,3.36914 -14.53125,3.36914 -3.36914,0 -6.76758,-0.55664 -3.36914,-0.52734 -6.67969,-1.61133 l 0,-8.70117 q 3.16406,1.58203 6.26953,2.40235 3.13477,0.79101 6.15235,0.79101 4.48242,0 6.85547,-1.55273 2.40234,-1.55274 2.40234,-4.45313 0,-2.98828 -2.46094,-4.51172 -2.43164,-1.55273 -7.20703,-1.55273 l -4.51172,0 0,-7.26563 4.7461,0 q 4.24804,0 6.32812,-1.31835 2.08008,-1.34766 2.08008,-4.07227 0,-2.51953 -2.02149,-3.89648 -2.02148,-1.37696 -5.71289,-1.37696 -2.72461,0 -5.50781,0.61524 -2.7832,0.61523 -5.53711,1.8164 l 0,-8.26172 q 3.33985,-0.9375 6.6211,-1.40625 3.28125,-0.46875 6.44531,-0.46875 8.52539,0 12.74414,2.8125 4.24805,2.78321 4.24805,8.40821 0,3.83789 -2.02149,6.29883 -2.02148,2.43164 -5.97656,3.42773 z"
         style="font-style:normal;font-variant:normal;font-weight:bold;font-stretch:normal;font-size:60px;font-family:sans-serif;-inkscape-font-specification:'sans-serif Bold';letter-spacing:0px"
         id="path9770" /></g></g></svg>