<?xml version="1.0" encoding="UTF-8" standalone="no"?>
<svg
   xmlns:dc="http://purl.org/dc/elements/1.1/"
   xmlns:cc="http://creativecommons.org/ns#"
   xmlns:rdf="http://www.w3.org/1999/02/22-rdf-syntax-ns#"
   xmlns:svg="http://www.w3.org/2000/svg"
   xmlns="http://www.w3.org/2000/svg"
   xmlns:sodipodi="http://sodipodi.sourceforge.net/DTD/sodipodi-0.dtd"
   xmlns:inkscape="http://www.inkscape.org/namespaces/inkscape"
   height="157.08754"
   version="1.1"
   viewBox="0 0 110 157.08754"
   width="110"
   xml:space="preserve"
   id="svg19322"
   inkscape:version="0.91 r13725"
   sodipodi:docname="design-sm-rc.svg"><sodipodi:namedview
     pagecolor="#ffffff"
     bordercolor="#666666"
     borderopacity="1"
     objecttolerance="10"
     gridtolerance="10"
     guidetolerance="10"
     inkscape:pageopacity="0"
     inkscape:pageshadow="2"
     inkscape:window-width="1920"
     inkscape:window-height="1027"
     id="namedview4159"
     showgrid="false"
     inkscape:zoom="5.3664345"
     inkscape:cx="55"
     inkscape:cy="78.54377"
     inkscape:window-x="0"
     inkscape:window-y="0"
     inkscape:window-maximized="1"
     inkscape:current-layer="svg19322" /><metadata
     id="metadata19388"><rdf:RDF><cc:Work
         rdf:about=""><dc:format>image/svg+xml</dc:format><dc:type
           rdf:resource="http://purl.org/dc/dcmitype/StillImage" /><dc:title /></cc:Work></rdf:RDF></metadata><defs
     id="defs19386"><filter
       style="color-interpolation-filters:sRGB"
       id="filter6214"><feFlood
         flood-opacity="0.498039"
         flood-color="rgb(0,0,0)"
         result="flood"
         id="feFlood6216" /><feComposite
         in="flood"
         in2="SourceGraphic"
         operator="out"
         result="composite1"
         id="feComposite6218" /><feGaussianBlur
         in="composite1"
         stdDeviation="1"
         result="blur"
         id="feGaussianBlur6220" /><feOffset
         dx="3.4"
         dy="2.5"
         result="offset"
         id="feOffset6222" /><feComposite
         in="offset"
         in2="SourceGraphic"
         operator="atop"
         result="composite2"
         id="feComposite6224" /></filter></defs><text
     id="text8653"
     y="166.5746"
     x="20.555298"
     style="font-style:normal;font-weight:normal;font-size:22.5px;line-height:125%;font-family:sans-serif;letter-spacing:0px;word-spacing:0px;fill:#000000;fill-opacity:1;stroke:none;stroke-width:1px;stroke-linecap:butt;stroke-linejoin:miter;stroke-opacity:1"
     xml:space="preserve"><tspan
       y="166.5746"
       x="20.555298"
       id="tspan8655" /></text>
<g
     id="g4222"><g
       id="g4207"><g
         transform="matrix(0.30039795,0,0,0.30039795,-21.902025,-24.670778)"
         style="enable-background:new"
         id="形状_1_9_"><g
           id="形状_1-3"><g
             id="g10966"><polygon
               id="polygon10968"
               style="clip-rule:evenodd;fill:#4d4d4d;fill-rule:evenodd"
               points="255.8,486.486 389.249,449.489 418.938,116.909 93.063,116.909 122.719,449.542 " /></g></g></g><g
         id="g4197"><g
           id="形状_1_7_"
           style="enable-background:new"
           transform="matrix(0.30039795,0,0,0.30039795,-21.902025,-24.670778)"><g
             id="形状_1_2_"><g
               id="g10978"><polygon
                 points="389.203,144.106 256,144.106 256,458.208 363.832,428.313 "
                 style="clip-rule:evenodd;fill:#808080;fill-rule:evenodd"
                 id="polygon10980" /></g></g></g><g
           id="g4189"><g
             id="g4193"><path
               id="path8658-5"
               d="m 48.712682,82.584315 34.10501,-34.102054 c 0.82916,-0.82965 0.82916,-2.174171 0,-3.003575 L 70.679102,33.336281 c -0.39895,-0.397721 -0.9388,-0.622177 -1.50216,-0.622177 -0.56409,0 -1.10148,0.224456 -1.50043,0.622177 l -34.10513,34.105868 c -0.23024,0.229255 -0.40252,0.507118 -0.50811,0.814637 l -6.321066,18.458676 c -0.261988,0.767015 -0.06128,1.616477 0.510072,2.189062 0.400919,0.402765 0.941263,0.618115 1.492558,0.620207 0.06756,0.128102 0.168465,0.248083 0.317487,0.351451 1.091889,0.761846 2.234719,1.352273 3.399699,1.869482 5.42841,2.40638 11.52909,2.327008 17.42573,1.010175 4.46365,-0.999346 8.69472,-2.772598 13.04503,-4.156005 5.92212,-1.884372 12.37277,-2.789333 18.52513,-3.511801 1.36162,-0.160712 1.13545,-2.272617 -0.22643,-2.112766 -8.36935,0.984456 -16.5855,2.662339 -24.52243,5.502741 -6.67683,2.386568 -14.33762,4.290629 -21.17688,2.215642 -1.46032,-0.441529 -2.88151,-1.072565 -4.24719,-1.91206 l 16.61577,-5.689173 c 0.30383,-0.106198 0.58575,-0.27897 0.81193,-0.508102 z m -1.08179,-4.923019 -2.25441,-2.252805 30.68686,-30.677131 2.24726,2.248744 -30.67971,30.681192 z m 21.54605,-39.818667 2.25231,2.252435 -30.68303,30.684268 -2.25281,-2.253666 30.68353,-30.683037 z m -33.33307,44.887385 -2.4193,-2.418316 2.76854,-8.081647 7.73044,7.732411 -8.07968,2.767552 z"
               style="fill:#ffffff" /><path
               style="fill:#b3b3b3;fill-opacity:1;stroke:none;stroke-opacity:1"
               d="M 55.064453 45.955078 L 33.537109 67.482422 C 33.306869 67.711677 33.13488 67.989356 33.029297 68.296875 L 26.708984 86.755859 C 26.446995 87.522874 26.647399 88.370774 27.21875 88.943359 C 27.61967 89.346124 28.159641 89.562361 28.710938 89.564453 C 28.778498 89.692555 28.878322 89.812648 29.027344 89.916016 C 30.119229 90.677862 31.262753 91.267947 32.427734 91.785156 C 37.856148 94.191536 43.95687 94.111755 49.853516 92.794922 C 51.621247 92.399152 53.347824 91.867024 55.064453 91.300781 L 55.064453 89.064453 C 48.782687 91.171892 41.796491 92.645281 35.498047 90.734375 C 34.037729 90.292846 32.615686 89.661761 31.25 88.822266 L 47.867188 83.132812 C 48.171016 83.026614 48.451555 82.854132 48.677734 82.625 L 55.064453 76.238281 L 55.064453 70.234375 L 47.597656 77.701172 L 45.341797 75.449219 L 55.064453 65.730469 L 55.064453 56.466797 L 40.712891 70.818359 L 38.458984 68.564453 L 55.064453 51.960938 L 55.064453 45.955078 z M 36.158203 72.269531 L 43.888672 80.001953 L 35.810547 82.769531 L 33.390625 80.351562 L 36.158203 72.269531 z "
               id="path8658" /></g></g></g></g><g
       id="text9041"
       style="font-style:normal;font-weight:normal;font-size:21.73197746px;line-height:125%;font-family:sans-serif;letter-spacing:-0.96586567px;word-spacing:0px;fill:#000000;fill-opacity:1;stroke:none;stroke-width:1px;stroke-linecap:butt;stroke-linejoin:miter;stroke-opacity:1"
       transform="scale(0.96586565,1.0353407)"><path
         id="path4164"
         style="font-style:normal;font-variant:normal;font-weight:bold;font-stretch:normal;font-size:26.561306px;font-family:sans-serif;-inkscape-font-specification:'sans-serif Bold';letter-spacing:-1.44879854px"
         d="m 16.340122,126.48543 0,11.81511 1.789775,0 q 3.060776,0 4.66898,-1.51742 1.621173,-1.51742 1.621173,-4.40959 0,-2.87921 -1.608204,-4.38365 -1.608204,-1.50445 -4.681949,-1.50445 l -1.789775,0 z m -4.993214,-3.7741 5.265571,0 q 4.409592,0 6.56251,0.6355 2.165888,0.62254 3.709245,2.12698 1.361786,1.30991 2.023225,3.02187 0.661438,1.71196 0.661438,3.87785 0,2.19183 -0.661438,3.91675 -0.661439,1.71196 -2.023225,3.02187 -1.556326,1.50445 -3.735184,2.13995 -2.178857,0.62253 -6.536571,0.62253 l -5.265571,0 0,-19.3633 z" /><path
         id="path4166"
         style="font-style:normal;font-variant:normal;font-weight:bold;font-stretch:normal;font-size:26.561306px;font-family:sans-serif;-inkscape-font-specification:'sans-serif Bold';letter-spacing:-1.44879854px"
         d="m 46.238332,134.77287 0,1.32287 -10.855377,0 q 0.168602,1.63415 1.180214,2.45122 1.011612,0.81707 2.827326,0.81707 1.465541,0 2.995929,-0.42799 1.543357,-0.44096 3.164531,-1.32288 l 0,3.57955 q -1.647113,0.62253 -3.294225,0.9338 -1.647112,0.32423 -3.294224,0.32423 -3.942694,0 -6.134521,-1.99728 -2.178857,-2.01026 -2.178857,-5.62872 0,-3.55361 2.139949,-5.5898 2.152918,-2.0362 5.914041,-2.0362 3.423918,0 5.473082,2.06214 2.062132,2.06213 2.062132,5.51199 z m -4.772735,-1.54336 q 0,-1.32288 -0.778163,-2.12698 -0.765194,-0.81707 -2.010255,-0.81707 -1.348816,0 -2.191826,0.76519 -0.843011,0.75223 -1.050521,2.17886 l 6.030765,0 z" /><path
         id="path4168"
         style="font-style:normal;font-variant:normal;font-weight:bold;font-stretch:normal;font-size:26.561306px;font-family:sans-serif;-inkscape-font-specification:'sans-serif Bold';letter-spacing:-1.44879854px"
         d="m 59.639482,128.00285 0,3.52767 q -1.491479,-0.62253 -2.879204,-0.9338 -1.387724,-0.31126 -2.619816,-0.31126 -1.322877,0 -1.971347,0.3372 -0.6355,0.32424 -0.6355,1.01161 0,0.55769 0.479867,0.85598 0.492837,0.2983 1.750868,0.44096 l 0.817071,0.11673 q 3.566582,0.45393 4.798674,1.49148 1.232092,1.03755 1.232092,3.25531 0,2.32152 -1.71196,3.48877 -1.711959,1.16724 -5.109938,1.16724 -1.439602,0 -2.98296,-0.23345 -1.530387,-0.22048 -3.151561,-0.6744 l 0,-3.52768 q 1.387725,0.67441 2.840296,1.01161 1.465541,0.33721 2.96999,0.33721 1.361786,0 2.049163,-0.37611 0.687378,-0.37612 0.687378,-1.11537 0,-0.62253 -0.479868,-0.92083 -0.466898,-0.31126 -1.880561,-0.47986 l -0.817071,-0.10376 q -3.099684,-0.38908 -4.344745,-1.4396 -1.245061,-1.05052 -1.245061,-3.19047 0,-2.30855 1.582265,-3.42392 1.582265,-1.11537 4.850551,-1.11537 1.283969,0 2.697633,0.19454 1.413663,0.19454 3.073744,0.60957 z" /><path
         id="path4170"
         style="font-style:normal;font-variant:normal;font-weight:bold;font-stretch:normal;font-size:26.561306px;font-family:sans-serif;-inkscape-font-specification:'sans-serif Bold';letter-spacing:-1.44879854px"
         d="m 62.665124,127.54892 4.643041,0 0,14.52571 -4.643041,0 0,-14.52571 z m 0,-5.65466 4.643041,0 0,3.78706 -4.643041,0 0,-3.78706 z" /><path
         id="path4172"
         style="font-style:normal;font-variant:normal;font-weight:bold;font-stretch:normal;font-size:26.561306px;font-family:sans-serif;-inkscape-font-specification:'sans-serif Bold';letter-spacing:-1.44879854px"
         d="m 80.229449,139.61045 q -0.959734,1.271 -2.11401,1.86759 -1.154275,0.59659 -2.671694,0.59659 -2.658724,0 -4.396622,-2.08807 -1.737898,-2.10104 -1.737898,-5.34339 0,-3.25531 1.737898,-5.33042 1.737898,-2.08807 4.396622,-2.08807 1.517419,0 2.671694,0.59659 1.154276,0.5966 2.11401,1.88056 l 0,-2.15291 4.66898,0 0,13.06017 q 0,3.50173 -2.217765,5.34339 -2.204796,1.85462 -6.406878,1.85462 -1.361786,0 -2.632786,-0.20751 -1.271,-0.20751 -2.554969,-0.6355 l 0,-3.61846 q 1.219122,0.70035 2.386367,1.03755 1.167245,0.35018 2.347459,0.35018 2.282613,0 3.346102,-0.99865 1.06349,-0.99864 1.06349,-3.12562 l 0,-0.99864 z m -3.060775,-9.03967 q -1.439602,0 -2.243704,1.06349 -0.804102,1.06349 -0.804102,3.0089 0,1.99729 0.778163,3.03484 0.778163,1.02458 2.269643,1.02458 1.452571,0 2.256673,-1.06349 0.804102,-1.06349 0.804102,-2.99593 0,-1.94541 -0.804102,-3.0089 -0.804102,-1.06349 -2.256673,-1.06349 z" /><path
         id="path4174"
         style="font-style:normal;font-variant:normal;font-weight:bold;font-stretch:normal;font-size:26.561306px;font-family:sans-serif;-inkscape-font-specification:'sans-serif Bold';letter-spacing:-1.44879854px"
         d="m 102.54057,133.22951 0,8.84512 -4.668984,0 0,-1.4396 0,-5.33042 q 0,-1.88056 -0.09078,-2.59388 -0.07782,-0.71331 -0.285327,-1.05052 -0.272357,-0.45393 -0.739255,-0.70034 -0.466898,-0.25939 -1.06349,-0.25939 -1.452571,0 -2.282612,1.12833 -0.830041,1.11537 -0.830041,3.09969 l 0,7.14613 -4.643041,0 0,-14.52571 4.643041,0 0,2.12698 q 1.050521,-1.271 2.230735,-1.8676 1.180214,-0.60956 2.606847,-0.60956 2.516061,0 3.813002,1.54336 1.30991,1.54336 1.30991,4.48741 z" /></g></g></svg>