<?xml version="1.0" encoding="UTF-8" standalone="no"?>
<svg
   xmlns:dc="http://purl.org/dc/elements/1.1/"
   xmlns:cc="http://creativecommons.org/ns#"
   xmlns:rdf="http://www.w3.org/1999/02/22-rdf-syntax-ns#"
   xmlns:svg="http://www.w3.org/2000/svg"
   xmlns="http://www.w3.org/2000/svg"
   id="svg10962"
   xml:space="preserve"
   width="512px"
   viewBox="0 0 512 512"
   version="1.1"
   style="enable-background:new 0 0 512 512;"
   height="512px"><metadata
     id="metadata10998"><rdf:RDF><cc:Work
         rdf:about=""><dc:format>image/svg+xml</dc:format><dc:type
           rdf:resource="http://purl.org/dc/dcmitype/StillImage" /><dc:title></dc:title></cc:Work></rdf:RDF></metadata><defs
     id="defs10996" /><g
     style="enable-background:new    ;"
     id="形状_1_5_" /><g
     id="g10449"><g
       id="g11540"
       transform="translate(-5e-4,-3.146288)"><g
         transform="translate(0,-73.762712)"
         style="enable-background:new"
         id="形状_1_9_"><g
           id="形状_1"><g
             id="g10966"><polygon
               id="polygon10968"
               style="clip-rule:evenodd;fill:#e44d26;fill-rule:evenodd"
               points="93.063,116.909 122.719,449.542 255.8,486.486 389.249,449.489 418.938,116.909 " /></g></g></g><g
         transform="translate(0,-73.762712)"
         style="enable-background:new"
         id="形状_1_8_"><g
           id="形状_1_1_"><g
             id="g10972"><path
               id="path10974"
               style="clip-rule:evenodd;fill:#ebebeb;fill-rule:evenodd"
               d="m 256,184.903 -102.298,0 0.977,10.945 10.027,112.422 91.294,0 0,-40.795 -53.984,0 -3.729,-41.775 57.713,0 0,-40.797 z m -45.614,176.303 -2.905,-32.536 -40.953,0 5.716,64.056 83.568,23.198 0.188,-0.052 0,-42.445 -0.179,0.048 -45.435,-12.269 z" /></g></g></g><g
         transform="translate(0,-73.762712)"
         style="enable-background:new"
         id="形状_1_7_"><g
           id="形状_1_2_"><g
             id="g10978"><polygon
               id="polygon10980"
               style="clip-rule:evenodd;fill:#f16529;fill-rule:evenodd"
               points="256,144.106 256,458.208 363.832,428.313 389.203,144.106 " /></g></g></g><g
         transform="translate(0,-73.762712)"
         style="enable-background:new"
         id="形状_1_6_"><g
           id="形状_1_3_"><g
             id="g10984"><path
               id="path10986"
               style="clip-rule:evenodd;fill:#ffffff;fill-rule:evenodd"
               d="m 255.858,308.271 50.236,0 -4.736,52.91 -45.5,12.281 0,42.442 83.634,-23.179 0.614,-6.892 9.587,-107.403 0.995,-10.955 -94.83,0 0,40.796 z m 0,-123.368 0,40.797 98.542,0 0.818,-9.17 1.859,-20.682 0.975,-10.945 -102.194,0 z" /></g></g></g></g><g
       style="font-style:normal;font-weight:normal;font-size:180px;line-height:125%;font-family:sans-serif;letter-spacing:0px;word-spacing:0px;fill:#000000;fill-opacity:1;stroke:none;stroke-width:1px;stroke-linecap:butt;stroke-linejoin:miter;stroke-opacity:1"
       id="text11558"><path
         d="m 145.4043,415.00073 11.27929,0 0,16.66992 16.64063,0 0,-16.66992 11.2793,0 0,43.74024 -11.2793,0 0,-18.54493 -16.64063,0 0,18.54493 -11.27929,0 0,-43.74024 z"
         style="font-style:normal;font-variant:normal;font-weight:bold;font-stretch:normal;font-size:60px;font-family:sans-serif;-inkscape-font-specification:'sans-serif Bold'"
         id="path10439" /><path
         d="m 190.46289,415.00073 40.3125,0 0,8.52539 -14.50195,0 0,35.21485 -11.2793,0 0,-35.21485 -14.53125,0 0,-8.52539 z"
         style="font-style:normal;font-variant:normal;font-weight:bold;font-stretch:normal;font-size:60px;font-family:sans-serif;-inkscape-font-specification:'sans-serif Bold'"
         id="path10441" /><path
         d="m 236.57617,415.00073 14.35547,0 9.96094,23.40821 10.01953,-23.40821 14.32617,0 0,43.74024 -10.66406,0 0,-31.99219 -10.07813,23.58398 -7.14843,0 -10.07813,-23.58398 0,31.99219 -10.69336,0 0,-43.74024 z"
         style="font-style:normal;font-variant:normal;font-weight:bold;font-stretch:normal;font-size:60px;font-family:sans-serif;-inkscape-font-specification:'sans-serif Bold'"
         id="path10443" /><path
         d="m 296.3418,415.00073 11.27929,0 0,35.21485 19.80469,0 0,8.52539 -31.08398,0 0,-43.74024 z"
         style="font-style:normal;font-variant:normal;font-weight:bold;font-stretch:normal;font-size:60px;font-family:sans-serif;-inkscape-font-specification:'sans-serif Bold'"
         id="path10445" /><path
         d="m 335.39453,415.00073 28.03711,0 0,8.29102 -19.04297,0 0,6.76758 q 1.28906,-0.35157 2.57813,-0.52735 1.31836,-0.20508 2.72461,-0.20508 7.99804,0 12.45117,4.01368 4.45312,3.98437 4.45312,11.13281 0,7.08984 -4.86328,11.10351 -4.83398,4.01368 -13.44726,4.01368 -3.72071,0 -7.38282,-0.73243 -3.63281,-0.70312 -7.23632,-2.16796 l 0,-8.87696 q 3.57421,2.05078 6.76757,3.07617 3.22266,1.02539 6.06446,1.02539 4.10156,0 6.44531,-1.99218 2.37305,-2.02149 2.37305,-5.44922 0,-3.45703 -2.37305,-5.44922 -2.34375,-1.99219 -6.44531,-1.99219 -2.43164,0 -5.18555,0.64453 -2.75391,0.61524 -5.91797,1.9336 l 0,-24.60938 z"
         style="font-style:normal;font-variant:normal;font-weight:bold;font-stretch:normal;font-size:60px;font-family:sans-serif;-inkscape-font-specification:'sans-serif Bold'"
         id="path10447" /></g></g></svg>