<?xml version="1.0" encoding="UTF-8" standalone="no"?>
<svg
   xmlns:dc="http://purl.org/dc/elements/1.1/"
   xmlns:cc="http://creativecommons.org/ns#"
   xmlns:rdf="http://www.w3.org/1999/02/22-rdf-syntax-ns#"
   xmlns:svg="http://www.w3.org/2000/svg"
   xmlns="http://www.w3.org/2000/svg"
   id="svg10962"
   xml:space="preserve"
   width="512px"
   viewBox="0 0 512 512"
   version="1.1"
   style="enable-background:new 0 0 512 512;"
   height="512px"><metadata
     id="metadata10998"><rdf:RDF><cc:Work
         rdf:about=""><dc:format>image/svg+xml</dc:format><dc:type
           rdf:resource="http://purl.org/dc/dcmitype/StillImage" /><dc:title></dc:title></cc:Work></rdf:RDF></metadata><defs
     id="defs10996" /><g
     style="enable-background:new    ;"
     id="形状_1_5_" /><g
     id="g11815"><g
       id="形状_1_9_"
       style="enable-background:new"
       transform="translate(-5e-4,-76.909)"><g
         id="形状_1"><g
           id="g10966"><polygon
             points="389.249,449.489 418.938,116.909 93.063,116.909 122.719,449.542 255.8,486.486 "
             style="clip-rule:evenodd;fill:#e4a325;fill-opacity:1;fill-rule:evenodd"
             id="polygon10968" /></g></g></g><g
       id="形状_1_1_"
       transform="translate(-5e-4,-76.909)"><g
         id="g10972"><path
           id="path10974"
           style="clip-rule:evenodd;fill:#ebebeb;fill-rule:evenodd"
           d="m 256,184.903 -62.298,0 -3.023,10.945 -23.973,112.422 89.294,0 0,-40.795 -39.984,0 10.271,-41.775 29.713,0 z m -45.614,176.303 -2.905,-32.536 -40.953,0 5.716,64.056 83.568,23.198 0.188,-0.052 0,-42.445 -0.179,0.048 z" /></g></g><g
       id="形状_1_7_"
       style="enable-background:new"
       transform="translate(-5e-4,-76.909)"><g
         id="形状_1_2_"><g
           id="g10978"><polygon
             points="363.832,428.313 389.203,144.106 256,144.106 256,458.208 "
             style="clip-rule:evenodd;fill:#f0bf25;fill-rule:evenodd;fill-opacity:1"
             id="polygon10980" /></g></g></g><g
       id="g10984"
       transform="translate(-5e-4,-76.909)"><path
         d="m 255.858,308.271 50.236,0 -4.736,52.91 -45.5,12.281 0,42.442 83.634,-23.179 0.614,-6.892 9.587,-107.403 0.995,-10.955 -94.83,0 z m 0,-123.368 0,40.797 52.542,0 0.818,16.83 41.859,-0.682 -1.025,-56.945 z"
         style="clip-rule:evenodd;fill:#ffffff;fill-rule:evenodd"
         id="path10986" /></g><g
       style="font-style:normal;font-variant:normal;font-weight:normal;font-stretch:normal;font-size:180px;line-height:125%;font-family:Dingbats;-inkscape-font-specification:Dingbats;letter-spacing:0px;word-spacing:0px;fill:#000000;fill-opacity:1;stroke:none;stroke-width:1px;stroke-linecap:butt;stroke-linejoin:miter;stroke-opacity:1"
       id="text11558"><path
         d="m 91.878906,427.77417 10.488284,0 0,32.22656 q 0,6.5918 -3.164065,10.04883 -3.164063,3.48633 -9.169922,3.48633 l -5.185547,0 0,-6.88477 1.816406,0 q 2.988282,0 4.101563,-1.34765 1.113281,-1.34766 1.113281,-5.30274 l 0,-32.22656 z m 0,-12.77344 10.488284,0 0,8.55469 -10.488284,0 0,-8.55469 z"
         style="font-style:normal;font-variant:normal;font-weight:bold;font-stretch:normal;font-size:60px;font-family:sans-serif;-inkscape-font-specification:'sans-serif Bold';letter-spacing:0px"
         id="path11795" /><path
         d="m 127.21094,445.82104 q -3.28125,0 -4.95117,1.11329 -1.64063,1.11328 -1.64063,3.28125 0,1.99218 1.31836,3.13476 1.34766,1.11328 3.7207,1.11328 2.95899,0 4.98047,-2.10937 2.02149,-2.13867 2.02149,-5.33203 l 0,-1.20118 -5.44922,0 z m 16.02539,-3.95507 0,18.7207 -10.57617,0 0,-4.86328 q -2.10938,2.98828 -4.7461,4.36523 -2.63672,1.34766 -6.41601,1.34766 -5.09766,0 -8.29102,-2.95899 -3.16406,-2.98828 -3.16406,-7.73437 0,-5.77148 3.95508,-8.4668 3.98437,-2.69531 12.48047,-2.69531 l 6.18164,0 0,-0.82031 q 0,-2.49024 -1.96289,-3.63281 -1.9629,-1.17188 -6.12305,-1.17188 -3.36914,0 -6.26953,0.67383 -2.90039,0.67383 -5.39063,2.02148 l 0,-7.99804 q 3.36914,-0.82032 6.76758,-1.23047 3.39844,-0.43946 6.79688,-0.43946 8.87695,0 12.80273,3.51563 3.95508,3.48633 3.95508,11.36719 z"
         style="font-style:normal;font-variant:normal;font-weight:bold;font-stretch:normal;font-size:60px;font-family:sans-serif;-inkscape-font-specification:'sans-serif Bold';letter-spacing:0px"
         id="path11797" /><path
         d="m 148.91992,427.77417 10.48828,0 8.17383,22.67578 8.14453,-22.67578 10.51758,0 -12.91992,32.8125 -11.51367,0 -12.89063,-32.8125 z"
         style="font-style:normal;font-variant:normal;font-weight:bold;font-stretch:normal;font-size:60px;font-family:sans-serif;-inkscape-font-specification:'sans-serif Bold';letter-spacing:0px"
         id="path11799" /><path
         d="m 206.89844,445.82104 q -3.28125,0 -4.95117,1.11329 -1.64063,1.11328 -1.64063,3.28125 0,1.99218 1.31836,3.13476 1.34766,1.11328 3.7207,1.11328 2.95899,0 4.98047,-2.10937 2.02149,-2.13867 2.02149,-5.33203 l 0,-1.20118 -5.44922,0 z m 16.02539,-3.95507 0,18.7207 -10.57617,0 0,-4.86328 q -2.10938,2.98828 -4.7461,4.36523 -2.63672,1.34766 -6.41601,1.34766 -5.09766,0 -8.29102,-2.95899 -3.16406,-2.98828 -3.16406,-7.73437 0,-5.77148 3.95508,-8.4668 3.98437,-2.69531 12.48047,-2.69531 l 6.18164,0 0,-0.82031 q 0,-2.49024 -1.96289,-3.63281 -1.9629,-1.17188 -6.12305,-1.17188 -3.36914,0 -6.26953,0.67383 -2.90039,0.67383 -5.39063,2.02148 l 0,-7.99804 q 3.36914,-0.82032 6.76758,-1.23047 3.39844,-0.43946 6.79688,-0.43946 8.87695,0 12.80273,3.51563 3.95508,3.48633 3.95508,11.36719 z"
         style="font-style:normal;font-variant:normal;font-weight:bold;font-stretch:normal;font-size:60px;font-family:sans-serif;-inkscape-font-specification:'sans-serif Bold';letter-spacing:0px"
         id="path11801" /><path
         d="m 263.64648,418.22339 0,9.25781 q -3.60351,-1.61133 -7.03125,-2.43164 -3.42773,-0.82031 -6.47461,-0.82031 -4.04296,0 -5.97656,1.11328 -1.93359,1.11328 -1.93359,3.45703 0,1.75781 1.28906,2.75391 1.31836,0.96679 4.74609,1.66992 l 4.80469,0.9668 q 7.29492,1.46484 10.3711,4.45312 3.07617,2.98828 3.07617,8.49609 0,7.23633 -4.30664,10.78125 -4.27735,3.51563 -13.09571,3.51563 -4.16015,0 -8.34961,-0.79102 -4.18945,-0.79101 -8.3789,-2.34375 l 0,-9.52148 q 4.18945,2.22656 8.08594,3.36914 3.92578,1.11328 7.55859,1.11328 3.69141,0 5.6543,-1.23047 1.96289,-1.23047 1.96289,-3.51562 0,-2.05078 -1.34766,-3.16407 -1.31836,-1.11328 -5.30273,-1.99218 l -4.36524,-0.9668 q -6.5625,-1.40625 -9.60937,-4.48242 -3.01758,-3.07617 -3.01758,-8.29102 0,-6.5332 4.21875,-10.04883 4.21875,-3.51562 12.12891,-3.51562 3.60351,0 7.4121,0.55664 3.8086,0.52734 7.88086,1.61133 z"
         style="font-style:normal;font-variant:normal;font-weight:bold;font-stretch:normal;font-size:60px;font-family:sans-serif;-inkscape-font-specification:'sans-serif Bold';letter-spacing:0px"
         id="path11803" /><path
         d="m 302.49414,428.79956 0,8.55469 q -2.13867,-1.46485 -4.30664,-2.16797 -2.13867,-0.70313 -4.45313,-0.70313 -4.39453,0 -6.85546,2.57813 -2.43164,2.54883 -2.43164,7.14844 0,4.59961 2.43164,7.17773 2.46093,2.54883 6.85546,2.54883 2.46094,0 4.65821,-0.73242 2.22656,-0.73242 4.10156,-2.16797 l 0,8.58398 q -2.46094,0.90821 -5.00977,1.34766 -2.51953,0.46875 -5.06835,0.46875 -8.87696,0 -13.88672,-4.54102 -5.00977,-4.57031 -5.00977,-12.68554 0,-8.11524 5.00977,-12.65625 5.00976,-4.57032 13.88672,-4.57032 2.57812,0 5.06835,0.46875 2.51954,0.43946 5.00977,1.34766 z"
         style="font-style:normal;font-variant:normal;font-weight:bold;font-stretch:normal;font-size:60px;font-family:sans-serif;-inkscape-font-specification:'sans-serif Bold';letter-spacing:0px"
         id="path11805" /><path
         d="m 335.98047,436.70972 q -1.37695,-0.64453 -2.75391,-0.9375 -1.34765,-0.32227 -2.72461,-0.32227 -4.04297,0 -6.24023,2.60742 -2.16797,2.57813 -2.16797,7.41211 l 0,15.11719 -10.48828,0 0,-32.8125 10.48828,0 0,5.39062 q 2.02148,-3.22265 4.62891,-4.6875 2.63671,-1.49414 6.29882,-1.49414 0.52735,0 1.14258,0.0586 0.61524,0.0293 1.78711,0.17578 l 0.0293,9.49219 z"
         style="font-style:normal;font-variant:normal;font-weight:bold;font-stretch:normal;font-size:60px;font-family:sans-serif;-inkscape-font-specification:'sans-serif Bold';letter-spacing:0px"
         id="path11807" /><path
         d="m 341.25391,427.77417 10.48828,0 0,32.8125 -10.48828,0 0,-32.8125 z m 0,-12.77344 10.48828,0 0,8.55469 -10.48828,0 0,-8.55469 z"
         style="font-style:normal;font-variant:normal;font-weight:bold;font-stretch:normal;font-size:60px;font-family:sans-serif;-inkscape-font-specification:'sans-serif Bold';letter-spacing:0px"
         id="path11809" /><path
         d="m 372.36719,455.84058 0,17.22656 -10.48828,0 0,-45.29297 10.48828,0 0,4.80469 q 2.16797,-2.8711 4.80468,-4.21875 2.63672,-1.37696 6.06446,-1.37696 6.06445,0 9.96094,4.83399 3.89648,4.80469 3.89648,12.39258 0,7.58789 -3.89648,12.42187 -3.89649,4.80469 -9.96094,4.80469 -3.42774,0 -6.06446,-1.34766 -2.63671,-1.37695 -4.80468,-4.24804 z m 6.97265,-21.24024 q -3.36914,0 -5.18554,2.49024 -1.78711,2.46093 -1.78711,7.11914 0,4.6582 1.78711,7.14843 1.8164,2.46094 5.18554,2.46094 3.36914,0 5.12696,-2.46094 1.78711,-2.46093 1.78711,-7.14843 0,-4.6875 -1.78711,-7.14844 -1.75782,-2.46094 -5.12696,-2.46094 z"
         style="font-style:normal;font-variant:normal;font-weight:bold;font-stretch:normal;font-size:60px;font-family:sans-serif;-inkscape-font-specification:'sans-serif Bold';letter-spacing:0px"
         id="path11811" /><path
         d="m 416.3418,418.45776 0,9.31641 10.81054,0 0,7.5 -10.81054,0 0,13.91602 q 0,2.28515 0.9082,3.10546 0.9082,0.79102 3.60352,0.79102 l 5.39062,0 0,7.5 -8.99414,0 q -6.21094,0 -8.81836,-2.57813 -2.57812,-2.60742 -2.57812,-8.81835 l 0,-13.91602 -5.21485,0 0,-7.5 5.21485,0 0,-9.31641 10.48828,0 z"
         style="font-style:normal;font-variant:normal;font-weight:bold;font-stretch:normal;font-size:60px;font-family:sans-serif;-inkscape-font-specification:'sans-serif Bold';letter-spacing:0px"
         id="path11813" /></g></g></svg>