<?xml version="1.0" encoding="UTF-8" standalone="no"?>
<svg
   xmlns:dc="http://purl.org/dc/elements/1.1/"
   xmlns:cc="http://creativecommons.org/ns#"
   xmlns:rdf="http://www.w3.org/1999/02/22-rdf-syntax-ns#"
   xmlns:svg="http://www.w3.org/2000/svg"
   xmlns="http://www.w3.org/2000/svg"
   xmlns:sodipodi="http://sodipodi.sourceforge.net/DTD/sodipodi-0.dtd"
   xmlns:inkscape="http://www.inkscape.org/namespaces/inkscape"
   height="157.08754"
   version="1.1"
   viewBox="0 0 110 157.08754"
   width="110"
   xml:space="preserve"
   id="svg19322"
   inkscape:version="0.91 r13725"
   sodipodi:docname="more-sm-rc.svg"><sodipodi:namedview
     pagecolor="#ffffff"
     bordercolor="#666666"
     borderopacity="1"
     objecttolerance="10"
     gridtolerance="10"
     guidetolerance="10"
     inkscape:pageopacity="0"
     inkscape:pageshadow="2"
     inkscape:window-width="1920"
     inkscape:window-height="1027"
     id="namedview7154"
     showgrid="false"
     inkscape:zoom="5.9329622"
     inkscape:cx="69.314533"
     inkscape:cy="85.294381"
     inkscape:window-x="0"
     inkscape:window-y="0"
     inkscape:window-maximized="1"
     inkscape:current-layer="svg19322" /><metadata
     id="metadata19388"><rdf:RDF><cc:Work
         rdf:about=""><dc:format>image/svg+xml</dc:format><dc:type
           rdf:resource="http://purl.org/dc/dcmitype/StillImage" /><dc:title></dc:title></cc:Work></rdf:RDF></metadata><defs
     id="defs19386" /><g
     id="g4260"
     transform="translate(5.1499978,9.1419373)"><g
       id="g8311"
       transform="matrix(0.29721029,0,0,0.29949675,-26.235832,-10.477915)"><g
         id="形状_1_19_"
         style="fill:#7f2aff;enable-background:new"
         transform="translate(0,-77.07)"><g
           id="形状_1"
           style="fill:#7f2aff"><g
             id="g19326"
             style="fill:#7f2aff"><polygon
               points="122.593,450.579 255.999,486.501 389.402,450.579 420.191,117.07 91.809,117.07 "
               style="clip-rule:evenodd;fill:#7f2aff;fill-rule:evenodd"
               id="polygon19328" /></g></g></g><g
         id="形状_1_18_"
         style="fill:#b380ff;enable-background:new"
         transform="translate(0,-77.07)"><g
           id="形状_1_1_"
           style="fill:#b380ff"><g
             id="g19332"
             style="fill:#b380ff"><polygon
               points="255.997,457.852 256.298,457.933 364.257,428.863 389.175,144.084 255.997,144.084 "
               style="clip-rule:evenodd;fill:#b380ff;fill-rule:evenodd"
               id="polygon19334" /></g></g></g><g
         transform="matrix(1.1033125,0,0,0.90636153,3.7694952,0)"
         style="font-style:normal;font-weight:normal;font-size:346.06536865px;line-height:125%;font-family:sans-serif;letter-spacing:-38.45170975px;word-spacing:0px;opacity:0.7;fill:#f6ffd5;fill-opacity:1;stroke:none;stroke-width:5.4000001;stroke-linecap:butt;stroke-linejoin:miter;stroke-miterlimit:4;stroke-dasharray:none;stroke-opacity:1"
         id="text24417"><path
           d="m 211.46084,328.37525 34.30237,0 0,42.92022 -34.30237,0 z m -3.51861,-209.36278 41.33959,0 -3.51861,110.68008 -3.37954,60.32487 -27.37431,0 -3.54852,-60.32487 z"
           id="path24422"
           style="fill:#f6ffd5;stroke:none;stroke-width:5.4000001;stroke-miterlimit:4;stroke-dasharray:none;stroke-opacity:1"
           inkscape:connector-curvature="0" /></g></g><g
       id="text4229"
       style="font-style:normal;font-variant:normal;font-weight:bold;font-stretch:normal;font-size:27.5px;line-height:125%;font-family:sans-serif;-inkscape-font-specification:'sans-serif Bold';letter-spacing:0px;word-spacing:0px;fill:#000000;fill-opacity:1;stroke:none;stroke-width:1px;stroke-linecap:butt;stroke-linejoin:miter;stroke-opacity:1"><path
         id="path4252"
         d="m 12.037502,116.8647 6.57959,0 4.56543,10.72876 4.592285,-10.72876 6.566162,0 0,20.04761 -4.887695,0 0,-14.66309 -4.619141,10.80933 -3.276367,0 -4.619141,-10.80933 0,14.66309 -4.901123,0 0,-20.04761 z"
         inkscape:connector-curvature="0" /><path
         id="path4254"
         d="m 54.227444,129.35249 0,1.36963 -11.239014,0 q 0.174561,1.6919 1.221924,2.53784 1.047363,0.84595 2.927246,0.84595 1.517334,0 3.101807,-0.44311 1.5979,-0.45655 3.276367,-1.36963 l 0,3.70605 q -1.705322,0.64453 -3.410645,0.9668 -1.705322,0.33569 -3.410644,0.33569 -4.082032,0 -6.351319,-2.06787 -2.255859,-2.0813 -2.255859,-5.82764 0,-3.67919 2.215576,-5.78735 2.229004,-2.10815 6.123047,-2.10815 3.544922,0 5.666504,2.13501 2.13501,2.13501 2.13501,5.70678 z m -4.941407,-1.5979 q 0,-1.36963 -0.805664,-2.20215 -0.792236,-0.84594 -2.081298,-0.84594 -1.396485,0 -2.269288,0.79223 -0.872802,0.77881 -1.087646,2.25586 l 6.243896,0 z"
         inkscape:connector-curvature="0" /><path
         id="path4256"
         d="m 72.865139,129.35249 0,1.36963 -11.239014,0 q 0.174561,1.6919 1.221924,2.53784 1.047363,0.84595 2.927246,0.84595 1.517334,0 3.101807,-0.44311 1.5979,-0.45655 3.276367,-1.36963 l 0,3.70605 q -1.705322,0.64453 -3.410644,0.9668 -1.705323,0.33569 -3.410645,0.33569 -4.082031,0 -6.351318,-2.06787 -2.25586,-2.0813 -2.25586,-5.82764 0,-3.67919 2.215576,-5.78735 2.229004,-2.10815 6.123047,-2.10815 3.544922,0 5.666504,2.13501 2.13501,2.13501 2.13501,5.70678 z m -4.941406,-1.5979 q 0,-1.36963 -0.805664,-2.20215 -0.792237,-0.84594 -2.081299,-0.84594 -1.396485,0 -2.269287,0.79223 -0.872803,0.77881 -1.087647,2.25586 l 6.243897,0 z"
         inkscape:connector-curvature="0" /><path
         id="path4258"
         d="m 87.662502,125.9687 q -0.631103,-0.29541 -1.262207,-0.42968 -0.617676,-0.14771 -1.248779,-0.14771 -1.853027,0 -2.860107,1.19507 -0.993653,1.18164 -0.993653,3.39722 l 0,6.92871 -4.807129,0 0,-15.03906 4.807129,0 0,2.4707 q 0.926514,-1.47705 2.121582,-2.14844 1.208496,-0.68481 2.886963,-0.68481 0.241699,0 0.523682,0.0268 0.281982,0.0134 0.819092,0.0806 l 0.01343,4.35058 z"
         inkscape:connector-curvature="0" /></g></g></svg>