<?xml version="1.0" encoding="UTF-8" standalone="no"?>
<svg
   xmlns:dc="http://purl.org/dc/elements/1.1/"
   xmlns:cc="http://creativecommons.org/ns#"
   xmlns:rdf="http://www.w3.org/1999/02/22-rdf-syntax-ns#"
   xmlns:svg="http://www.w3.org/2000/svg"
   xmlns="http://www.w3.org/2000/svg"
   id="svg19322"
   xml:space="preserve"
   width="512px"
   viewBox="0 0 512 512"
   version="1.1"
   style="enable-background:new 0 0 512 512;"
   height="512px"><metadata
     id="metadata19388"><rdf:RDF><cc:Work
         rdf:about=""><dc:format>image/svg+xml</dc:format><dc:type
           rdf:resource="http://purl.org/dc/dcmitype/StillImage" /><dc:title></dc:title></cc:Work></rdf:RDF></metadata><defs
     id="defs19386" /><g
     id="g12476"><g
       id="形状_1_19_"
       style="enable-background:new;fill:#7f2aff"
       transform="translate(0,-77.07)"><g
         id="形状_1"
         style="fill:#7f2aff"><g
           id="g19326"
           style="fill:#7f2aff"><polygon
             points="91.809,117.07 122.593,450.579 255.999,486.501 389.402,450.579 420.191,117.07 "
             style="clip-rule:evenodd;fill:#7f2aff;fill-rule:evenodd"
             id="polygon19328" /></g></g></g><g
       id="形状_1_18_"
       style="enable-background:new;fill:#b380ff"
       transform="translate(0,-77.07)"><g
         id="形状_1_1_"
         style="fill:#b380ff"><g
           id="g19332"
           style="fill:#b380ff"><polygon
             points="255.997,144.084 255.997,457.852 256.298,457.933 364.257,428.863 389.175,144.084 "
             style="clip-rule:evenodd;fill:#b380ff;fill-rule:evenodd"
             id="polygon19334" /></g></g></g><g
       style="font-style:normal;font-variant:normal;font-weight:bold;font-stretch:normal;font-size:22.5px;line-height:125%;font-family:sans-serif;-inkscape-font-specification:'sans-serif Bold';letter-spacing:0px;word-spacing:0px;fill:#000000;fill-opacity:1;stroke:none;stroke-width:1px;stroke-linecap:butt;stroke-linejoin:miter;stroke-opacity:1"
       id="text23569"><path
         d="m 174.52539,415.11185 14.35547,0 9.96094,23.4082 10.01953,-23.4082 14.32617,0 0,43.74023 -10.66406,0 0,-31.99219 -10.07813,23.58399 -7.14844,0 -10.07812,-23.58399 0,31.99219 -10.69336,0 0,-43.74023 z"
         style="font-size:60px"
         id="path12468" /><path
         d="m 249.4375,432.74857 q -3.48633,0 -5.33203,2.51953 -1.81641,2.49023 -1.81641,7.20703 0,4.7168 1.81641,7.23633 1.8457,2.49023 5.33203,2.49023 3.42773,0 5.24414,-2.49023 1.81641,-2.51953 1.81641,-7.23633 0,-4.7168 -1.81641,-7.20703 -1.81641,-2.51953 -5.24414,-2.51953 z m 0,-7.5 q 8.4668,0 13.21289,4.57031 4.77539,4.57031 4.77539,12.65625 0,8.08594 -4.77539,12.65625 -4.74609,4.57031 -13.21289,4.57031 -8.49609,0 -13.30078,-4.57031 -4.77539,-4.57031 -4.77539,-12.65625 0,-8.08594 4.77539,-12.65625 4.80469,-4.57031 13.30078,-4.57031 z"
         style="font-size:60px"
         id="path12470" /><path
         d="m 299.44727,434.97513 q -1.37696,-0.64453 -2.75391,-0.9375 -1.34766,-0.32227 -2.72461,-0.32227 -4.04297,0 -6.24023,2.60742 -2.16797,2.57813 -2.16797,7.41211 l 0,15.11719 -10.48828,0 0,-32.8125 10.48828,0 0,5.39063 q 2.02148,-3.22266 4.6289,-4.6875 2.63672,-1.49414 6.29883,-1.49414 0.52734,0 1.14258,0.0586 0.61523,0.0293 1.78711,0.17578 l 0.0293,9.49219 z"
         style="font-size:60px"
         id="path12472" /><path
         d="m 337.47461,442.35794 0,2.98828 -24.52149,0 q 0.38086,3.69141 2.66602,5.53711 2.28516,1.8457 6.38672,1.8457 3.31055,0 6.76758,-0.96679 3.48633,-0.9961 7.14843,-2.98828 l 0,8.08593 q -3.7207,1.40625 -7.4414,2.10938 -3.7207,0.73242 -7.44141,0.73242 -8.90625,0 -13.85742,-4.51172 -4.92187,-4.54101 -4.92187,-12.71484 0,-8.02735 4.83398,-12.62695 4.86328,-4.59961 13.35937,-4.59961 7.73438,0 12.36329,4.6582 4.6582,4.6582 4.6582,12.45117 z m -10.78125,-3.48633 q 0,-2.98828 -1.75781,-4.80468 -1.72852,-1.84571 -4.54102,-1.84571 -3.04687,0 -4.95117,1.72852 -1.9043,1.69922 -2.37305,4.92187 l 13.62305,0 z"
         style="font-size:60px"
         id="path12474" /></g><g
       transform="matrix(1.1033125,0,0,0.90636153,3.7694952,0)"
       style="font-style:normal;font-weight:normal;font-size:346.06536865px;line-height:125%;font-family:sans-serif;letter-spacing:-38.45170975px;word-spacing:0px;opacity:0.7;fill:#f6ffd5;fill-opacity:1;stroke:none;stroke-width:5.4000001;stroke-linecap:butt;stroke-linejoin:miter;stroke-miterlimit:4;stroke-dasharray:none;stroke-opacity:1"
       id="text24417"><path
         d="m 211.46084,328.37525 34.30237,0 0,42.92022 -34.30237,0 z m -3.51861,-209.36278 41.33959,0 -3.51861,110.68008 -3.37954,60.32487 -27.37431,0 -3.54852,-60.32487 z"
         id="path24422"
         style="fill:#f6ffd5;stroke:none;stroke-width:5.4000001;stroke-miterlimit:4;stroke-dasharray:none;stroke-opacity:1" /></g></g></svg>