<?xml version="1.0" encoding="UTF-8" standalone="no"?>
<svg
   xmlns:dc="http://purl.org/dc/elements/1.1/"
   xmlns:cc="http://creativecommons.org/ns#"
   xmlns:rdf="http://www.w3.org/1999/02/22-rdf-syntax-ns#"
   xmlns:svg="http://www.w3.org/2000/svg"
   xmlns="http://www.w3.org/2000/svg"
   id="svg19322"
   xml:space="preserve"
   width="512px"
   viewBox="0 0 512 512"
   version="1.1"
   style="enable-background:new 0 0 512 512;"
   height="512px"><metadata
     id="metadata19388"><rdf:RDF><cc:Work
         rdf:about=""><dc:format>image/svg+xml</dc:format><dc:type
           rdf:resource="http://purl.org/dc/dcmitype/StillImage" /><dc:title></dc:title></cc:Work></rdf:RDF></metadata><defs
     id="defs19386" /><g
     id="g8433"><g
       id="形状_1_19_"
       style="enable-background:new;fill:#008000"
       transform="translate(0,-77.07)"><g
         id="形状_1"
         style="fill:#008000"><g
           id="g19326"
           style="fill:#008000"><polygon
             points="91.809,117.07 122.593,450.579 255.999,486.501 389.402,450.579 420.191,117.07 "
             style="clip-rule:evenodd;fill:#008000;fill-rule:evenodd"
             id="polygon19328" /></g></g></g><g
       id="形状_1_18_"
       style="enable-background:new;fill:#8dd35f"
       transform="translate(0,-77.07)"><g
         id="形状_1_1_"
         style="fill:#8dd35f"><g
           id="g19332"
           style="fill:#8dd35f"><polygon
             points="255.997,144.084 255.997,457.852 256.298,457.933 364.257,428.863 389.175,144.084 "
             style="clip-rule:evenodd;fill:#8dd35f;fill-rule:evenodd"
             id="polygon19334" /></g></g></g><g
       style="font-style:normal;font-variant:normal;font-weight:bold;font-stretch:normal;font-size:22.5px;line-height:125%;font-family:sans-serif;-inkscape-font-specification:'sans-serif Bold';letter-spacing:0px;word-spacing:0px;fill:#000000;fill-opacity:1;stroke:none;stroke-width:1px;stroke-linecap:butt;stroke-linejoin:miter;stroke-opacity:1"
       id="text23569"><path
         d="m 194.6377,415.11185 18.7207,0 q 8.34961,0 12.80273,3.7207 4.48242,3.69141 4.48242,10.54688 0,6.88476 -4.48242,10.60546 -4.45312,3.69141 -12.80273,3.69141 l -7.44141,0 0,15.17578 -11.27929,0 0,-43.74023 z m 11.27929,8.17383 0,12.21679 6.24024,0 q 3.28125,0 5.06836,-1.58203 1.78711,-1.61133 1.78711,-4.54101 0,-2.92969 -1.78711,-4.51172 -1.78711,-1.58203 -5.06836,-1.58203 l -6.24024,0 z"
         style="font-size:60px"
         id="path8427" /><path
         d="m 271.10254,438.87161 0,19.98047 -10.54688,0 0,-3.25195 0,-11.98242 q 0,-4.30664 -0.20507,-5.91797 -0.17579,-1.61133 -0.64454,-2.37305 -0.61523,-1.02539 -1.66992,-1.58203 -1.05468,-0.58594 -2.40234,-0.58594 -3.28125,0 -5.15625,2.54883 -1.875,2.51953 -1.875,7.00195 l 0,16.14258 -10.48828,0 0,-45.58594 10.48828,0 0,17.57813 q 2.37305,-2.87109 5.03906,-4.21875 2.66602,-1.37695 5.88867,-1.37695 5.6836,0 8.61328,3.48632 2.95899,3.48633 2.95899,10.13672 z"
         style="font-size:60px"
         id="path8429" /><path
         d="m 281.35645,415.11185 18.7207,0 q 8.34961,0 12.80273,3.7207 4.48242,3.69141 4.48242,10.54688 0,6.88476 -4.48242,10.60546 -4.45312,3.69141 -12.80273,3.69141 l -7.44141,0 0,15.17578 -11.27929,0 0,-43.74023 z m 11.27929,8.17383 0,12.21679 6.24024,0 q 3.28125,0 5.06836,-1.58203 1.78711,-1.61133 1.78711,-4.54101 0,-2.92969 -1.78711,-4.51172 -1.78711,-1.58203 -5.06836,-1.58203 l -6.24024,0 z"
         style="font-size:60px"
         id="path8431" /></g><g
       transform="matrix(2.3183669,-0.20143636,0.26782212,1.7437073,-201.75059,-100.04839)"
       style="font-style:normal;font-variant:normal;font-weight:bold;font-stretch:normal;font-size:22.5px;line-height:125%;font-family:sans-serif;-inkscape-font-specification:'sans-serif Bold';letter-spacing:0px;word-spacing:0px;fill:#e5e4e2;fill-opacity:1;stroke:#ffffff;stroke-width:1px;stroke-linecap:butt;stroke-linejoin:miter;stroke-opacity:1"
       id="text23569-0"><path
         d="m 138.95505,124.16671 17.7156,1.89719 c 5.53476,0.59273 9.83399,1.24024 12.80274,3.72071 2.98828,2.46093 4.48242,5.97656 4.48242,10.54687 0,4.58985 -1.49414,8.125 -4.48242,10.60547 -2.96875,2.46094 -7.31335,4.63555 -12.86498,4.2302 l -7.37916,-0.53879 -0.13615,16.35438 -12.49851,-1.33518 z m 10.2742,10.07102 0,12.2168 6.17799,0.53879 c 2.17923,0.19005 3.87695,-0.52734 5.06836,-1.58203 1.19141,-1.07422 1.78711,-2.58789 1.78711,-4.54102 0,-1.95313 -0.5957,-3.45703 -1.78711,-4.51172 -1.19141,-1.05469 -2.88913,-1.39198 -5.06836,-1.58203 z"
         style="font-size:60px;fill:#e5e4e2;fill-opacity:1;stroke:#ffffff;stroke-opacity:1"
         id="path23644" /></g><g
       transform="matrix(1.7036337,-0.14802392,0.19680698,1.2813496,-27.557189,169.50716)"
       style="font-style:normal;font-variant:normal;font-weight:bold;font-stretch:normal;font-size:22.5px;line-height:125%;font-family:sans-serif;-inkscape-font-specification:'sans-serif Bold';letter-spacing:0px;word-spacing:0px;fill:#fbfbfa;fill-opacity:1;stroke:#eeeeee;stroke-width:1px;stroke-linecap:butt;stroke-linejoin:miter;stroke-opacity:1"
       id="text23569-0-8"><path
         d="m 165.72405,93.803165 25.16348,2.7037 c 7.53161,0.80924 13.38245,1.68776 17.42243,5.063275 4.06656,3.34892 6.09984,8.13312 6.09984,14.35256 0,6.24604 -2.03328,11.0568 -6.09984,14.43232 -4.03998,3.34893 -9.95227,6.30822 -17.50713,5.75661 l -10.04183,-0.73321 -0.8889,22.17436 -17.59148,3.82842 z m 15.38876,13.867585 -0.35181,16.58442 8.40723,0.73321 c 2.96558,0.25863 5.2759,-0.71762 6.89721,-2.15288 1.62132,-1.46184 2.43197,-3.5217 2.43197,-6.17959 0,-2.65789 -0.81065,-4.70445 -2.43197,-6.13971 -1.62131,-1.43526 -3.93163,-1.89426 -6.89721,-2.15289 z"
         style="font-size:60px;fill:#fbfbfa;fill-opacity:1;stroke:#eeeeee;stroke-opacity:1"
         id="path23644-3" /></g><g
       id="g23788"
       transform="translate(0,0.84642479)"><g
         id="text23569-4"
         style="font-style:normal;font-variant:normal;font-weight:bold;font-stretch:normal;font-size:38.51702499px;line-height:125%;font-family:sans-serif;-inkscape-font-specification:'sans-serif Bold';letter-spacing:0px;word-spacing:0px;fill:#e5e4e2;fill-opacity:1;stroke:#ffffff;stroke-width:1px;stroke-linecap:butt;stroke-linejoin:miter;stroke-opacity:1"
         transform="matrix(1.465323,-0.12943325,0.12547396,1.1021095,-119.46587,-10.653165)"><path
           id="path23665"
           style="font-size:102.71206665px;fill:#e5e4e2;fill-opacity:1;stroke:#ffffff;stroke-opacity:1"
           d="m 261.26261,224.97619 0.36144,33.54057 -17.07537,-1.87696 0,-5.15346 0,-18.98888 c 0,-4.5499 -0.10833,-7.67602 -0.32499,-9.37837 -0.18571,-1.70234 -0.52618,-2.95589 -1.02141,-3.76064 -0.64998,-1.08331 -1.53211,-1.919 -2.64637,-2.50708 -1.11426,-0.61903 -2.38328,-0.92855 -3.80706,-0.92855 -3.4666,0 -6.19034,1.3464 -8.17125,4.0392 -1.98091,2.66185 -2.97137,6.36057 -2.97137,11.09618 l 0.21181,23.10791 -16.47,-1.76423 -0.23074,-69.54657 16.48893,1.54318 0,27.85655 c 2.50709,-3.03327 5.16894,-5.26179 7.98554,-6.68557 2.81661,-1.45473 5.92726,-2.1821 9.33195,-2.1821 6.00463,0 10.55454,1.84163 13.64971,5.52488 3.12612,3.68325 4.68918,9.0379 4.68918,16.06394 z" /></g><g
         id="text23569-4-0"
         style="font-style:normal;font-variant:normal;font-weight:bold;font-stretch:normal;font-size:38.51702499px;line-height:125%;font-family:sans-serif;-inkscape-font-specification:'sans-serif Bold';letter-spacing:0px;word-spacing:0px;fill:#fbfbfa;fill-opacity:1;stroke:#eeeeee;stroke-width:0.84326452;stroke-linecap:butt;stroke-linejoin:miter;stroke-miterlimit:4;stroke-dasharray:none;stroke-opacity:1"
         transform="matrix(1.465323,-0.12943325,0.12547396,1.1021095,-119.45681,-10.462643)"><path
           id="path23665-3"
           style="font-size:102.71206665px;fill:#fbfbfa;fill-opacity:1;stroke:#eeeeee;stroke-width:0.84326452;stroke-miterlimit:4;stroke-dasharray:none;stroke-opacity:1"
           d="m 261.51906,225.00629 0.36144,33.54057 -17.07537,-1.87696 0,-5.15346 0,-18.98888 c 0,-4.5499 -0.10833,-7.67602 -0.32499,-9.37837 -0.18571,-1.70234 -0.52618,-2.95589 -1.02141,-3.76064 -0.64998,-1.08331 -1.53211,-1.919 -2.64637,-2.50708 -1.11426,-0.61903 -1.49526,-1.03092 -2.91904,-1.03092 l 1.03023,-12.39809 c 1.55533,-0.36369 2.58348,-0.376 4.28582,-0.376 6.00463,0 10.52534,2.18263 13.62051,5.86588 3.12612,3.68325 4.68918,9.0379 4.68918,16.06394 z" /></g></g></g></svg>